#define QCA_width 56
#define QCA_height 28
static unsigned char QCA_bits[] = {
   0x00, 0x00, 0x00, 0x1f, 0x00, 0x00, 0x00, 0x00, 0x00, 0x80, 0x3f, 0x00,
   0x00, 0x00, 0x00, 0x00, 0xc0, 0x71, 0x00, 0x00, 0x00, 0x00, 0x00, 0xe0,
   0xe0, 0x00, 0x00, 0x00, 0x00, 0x00, 0xe0, 0xe0, 0x00, 0x00, 0x00, 0x00,
   0x00, 0xe0, 0xe0, 0x00, 0x00, 0x00, 0x00, 0x00, 0xe0, 0xe0, 0x00, 0x00,
   0x00, 0x00, 0x00, 0xe0, 0xe0, 0x00, 0x00, 0x00, 0x00, 0x00, 0xe0, 0xee,
   0x00, 0x00, 0x00, 0x00, 0x00, 0xe0, 0xee, 0x00, 0x00, 0x00, 0x00, 0x00,
   0xe0, 0xec, 0x00, 0x00, 0x00, 0x00, 0x00, 0xc0, 0x7d, 0x00, 0x00, 0x00,
   0x00, 0x00, 0x80, 0x3f, 0x00, 0x00, 0x00, 0x00, 0x00, 0x00, 0x3f, 0x00,
   0x00, 0x00, 0x00, 0x00, 0x1e, 0x70, 0x3c, 0x00, 0x00, 0x00, 0x00, 0x3f,
   0x70, 0x7e, 0x00, 0x00, 0x00, 0x80, 0x73, 0x00, 0xe7, 0x00, 0x00, 0x00,
   0xc0, 0x61, 0x80, 0xc3, 0x01, 0x00, 0x00, 0xc0, 0x01, 0x80, 0xc3, 0x01,
   0x00, 0x00, 0xc0, 0x01, 0x80, 0xc3, 0x01, 0x00, 0x00, 0xc0, 0x01, 0x80,
   0xc3, 0x01, 0x00, 0x00, 0xc0, 0x01, 0x80, 0xc3, 0x01, 0x00, 0x00, 0xc0,
   0x01, 0x80, 0xff, 0x01, 0x00, 0x00, 0xc0, 0x01, 0x80, 0xff, 0x01, 0x00,
   0x00, 0xc0, 0x61, 0x80, 0xc3, 0x01, 0x00, 0x00, 0x80, 0x73, 0x80, 0xc3,
   0x01, 0x00, 0x00, 0x00, 0x3f, 0x80, 0xc3, 0x01, 0x00, 0x00, 0x00, 0x1e,
   0x80, 0xc3, 0x01, 0x00 };
